<?xml version="1.0" encoding="UTF-8"?>
<svg width="255" height="255" version="1.1" viewBox="0 0 700 500" xmlns="http://www.w3.org/2000/svg" xmlns:xlink="http://www.w3.org/1999/xlink">
 <defs>
  <symbol id="t" overflow="visible">
   <path d="m18.766-1.125c-0.96875 0.5-1.9805 0.875-3.0312 1.125-1.043 0.25781-2.1367 0.39062-3.2812 0.39062-3.3984 0-6.0898-0.94531-8.0781-2.8438-1.9922-1.9062-2.9844-4.4844-2.9844-7.7344 0-3.2578 0.99219-5.8359 2.9844-7.7344 1.9883-1.9062 4.6797-2.8594 8.0781-2.8594 1.1445 0 2.2383 0.13281 3.2812 0.39062 1.0508 0.25 2.0625 0.625 3.0312 1.125v4.2188c-0.98047-0.65625-1.9453-1.1406-2.8906-1.4531-0.94922-0.3125-1.9492-0.46875-3-0.46875-1.875 0-3.3516 0.60547-4.4219 1.8125-1.0742 1.1992-1.6094 2.8555-1.6094 4.9688 0 2.1055 0.53516 3.7617 1.6094 4.9688 1.0703 1.1992 2.5469 1.7969 4.4219 1.7969 1.0508 0 2.0508-0.14844 3-0.45312 0.94531-0.3125 1.9102-0.80078 2.8906-1.4688z"/>
  </symbol>
  <symbol id="c" overflow="visible">
   <path d="m13.734-11.141c-0.4375-0.19531-0.87109-0.34375-1.2969-0.4375-0.41797-0.10156-0.83984-0.15625-1.2656-0.15625-1.2617 0-2.2305 0.40625-2.9062 1.2188-0.67969 0.80469-1.0156 1.9531-1.0156 3.4531v7.0625h-4.8906v-15.312h4.8906v2.5156c0.625-1 1.3438-1.7266 2.1562-2.1875 0.82031-0.46875 1.8008-0.70312 2.9375-0.70312 0.16406 0 0.34375 0.011719 0.53125 0.03125 0.19531 0.011719 0.47656 0.039062 0.84375 0.078125z"/>
  </symbol>
  <symbol id="a" overflow="visible">
   <path d="m17.641-7.7031v1.4062h-11.453c0.125 1.1484 0.53906 2.0078 1.25 2.5781 0.70703 0.57422 1.7031 0.85938 2.9844 0.85938 1.0312 0 2.082-0.14844 3.1562-0.45312 1.082-0.3125 2.1914-0.77344 3.3281-1.3906v3.7656c-1.1562 0.4375-2.3125 0.76562-3.4688 0.98438-1.1562 0.22656-2.3125 0.34375-3.4688 0.34375-2.7734 0-4.9297-0.70312-6.4688-2.1094-1.5312-1.4062-2.2969-3.3789-2.2969-5.9219 0-2.5 0.75391-4.4609 2.2656-5.8906 1.5078-1.4375 3.582-2.1562 6.2188-2.1562 2.4062 0 4.332 0.73047 5.7812 2.1875 1.4453 1.4492 2.1719 3.3828 2.1719 5.7969zm-5.0312-1.625c0-0.92578-0.27344-1.6719-0.8125-2.2344-0.54297-0.57031-1.25-0.85938-2.125-0.85938-0.94922 0-1.7188 0.26562-2.3125 0.79688s-0.96484 1.2969-1.1094 2.2969z"/>
  </symbol>
  <symbol id="l" overflow="visible">
   <path d="m9.2188-6.8906c-1.0234 0-1.793 0.17188-2.3125 0.51562-0.51172 0.34375-0.76562 0.85547-0.76562 1.5312 0 0.625 0.20703 1.1172 0.625 1.4688 0.41406 0.34375 0.98828 0.51562 1.7188 0.51562 0.92578 0 1.7031-0.32812 2.3281-0.98438 0.63281-0.66406 0.95312-1.4922 0.95312-2.4844v-0.5625zm7.4688-1.8438v8.7344h-4.9219v-2.2656c-0.65625 0.92969-1.3984 1.6055-2.2188 2.0312-0.82422 0.41406-1.8242 0.625-3 0.625-1.5859 0-2.8711-0.45703-3.8594-1.375-0.99219-0.92578-1.4844-2.1289-1.4844-3.6094 0-1.7891 0.61328-3.1016 1.8438-3.9375 1.2383-0.84375 3.1797-1.2656 5.8281-1.2656h2.8906v-0.39062c0-0.76953-0.30859-1.332-0.92188-1.6875-0.61719-0.36328-1.5703-0.54688-2.8594-0.54688-1.0547 0-2.0312 0.10547-2.9375 0.3125-0.89844 0.21094-1.7305 0.52344-2.5 0.9375v-3.7344c1.0391-0.25 2.0859-0.44141 3.1406-0.57812 1.0625-0.13281 2.125-0.20312 3.1875-0.20312 2.7578 0 4.75 0.54688 5.9688 1.6406 1.2266 1.0859 1.8438 2.8555 1.8438 5.3125z"/>
  </symbol>
  <symbol id="b" overflow="visible">
   <path d="m7.7031-19.656v4.3438h5.0469v3.5h-5.0469v6.5c0 0.71094 0.14062 1.1875 0.42188 1.4375s0.83594 0.375 1.6719 0.375h2.5156v3.5h-4.1875c-1.9375 0-3.3125-0.39844-4.125-1.2031-0.80469-0.8125-1.2031-2.1797-1.2031-4.1094v-6.5h-2.4219v-3.5h2.4219v-4.3438z"/>
  </symbol>
  <symbol id="k" overflow="visible">
   <path d="m12.766-13.078v-8.2031h4.9219v21.281h-4.9219v-2.2188c-0.66797 0.90625-1.4062 1.5703-2.2188 1.9844s-1.7578 0.625-2.8281 0.625c-1.8867 0-3.4336-0.75-4.6406-2.25-1.2109-1.5-1.8125-3.4258-1.8125-5.7812 0-2.3633 0.60156-4.2969 1.8125-5.7969 1.207-1.5 2.7539-2.25 4.6406-2.25 1.0625 0 2 0.21484 2.8125 0.64062 0.82031 0.42969 1.5664 1.0859 2.2344 1.9688zm-3.2188 9.9219c1.0391 0 1.8359-0.37891 2.3906-1.1406 0.55078-0.76953 0.82812-1.8828 0.82812-3.3438 0-1.457-0.27734-2.5664-0.82812-3.3281-0.55469-0.76953-1.3516-1.1562-2.3906-1.1562-1.043 0-1.8398 0.38672-2.3906 1.1562-0.55469 0.76172-0.82812 1.8711-0.82812 3.3281 0 1.4609 0.27344 2.5742 0.82812 3.3438 0.55078 0.76172 1.3477 1.1406 2.3906 1.1406z"/>
  </symbol>
  <symbol id="j" overflow="visible">
   <path d="m10.5-3.1562c1.0508 0 1.8516-0.37891 2.4062-1.1406 0.55078-0.76953 0.82812-1.8828 0.82812-3.3438 0-1.457-0.27734-2.5664-0.82812-3.3281-0.55469-0.76953-1.3555-1.1562-2.4062-1.1562-1.0547 0-1.8594 0.38672-2.4219 1.1562-0.55469 0.77344-0.82812 1.8828-0.82812 3.3281 0 1.4492 0.27344 2.5586 0.82812 3.3281 0.5625 0.77344 1.3672 1.1562 2.4219 1.1562zm-3.25-9.9219c0.67578-0.88281 1.4219-1.5391 2.2344-1.9688 0.82031-0.42578 1.7656-0.64062 2.8281-0.64062 1.8945 0 3.4453 0.75 4.6562 2.25 1.207 1.5 1.8125 3.4336 1.8125 5.7969 0 2.3555-0.60547 4.2812-1.8125 5.7812-1.2109 1.5-2.7617 2.25-4.6562 2.25-1.0625 0-2.0078-0.21094-2.8281-0.625-0.8125-0.42578-1.5586-1.0859-2.2344-1.9844v2.2188h-4.8906v-21.281h4.8906z"/>
  </symbol>
  <symbol id="i" overflow="visible">
   <path d="m0.34375-15.312h4.8906l4.125 10.391 3.5-10.391h4.8906l-6.4375 16.766c-0.64844 1.6953-1.4023 2.8828-2.2656 3.5625-0.86719 0.6875-2 1.0312-3.4062 1.0312h-2.8438v-3.2188h1.5312c0.83203 0 1.4375-0.13672 1.8125-0.40625 0.38281-0.26172 0.67969-0.73047 0.89062-1.4062l0.14062-0.42188z"/>
  </symbol>
  <symbol id="d" overflow="visible">
   <path d="m2.5781-20.406h8.7344c2.5938 0 4.582 0.57812 5.9688 1.7344 1.3945 1.1484 2.0938 2.7891 2.0938 4.9219 0 2.1367-0.69922 3.7812-2.0938 4.9375-1.3867 1.1562-3.375 1.7344-5.9688 1.7344h-3.4844v7.0781h-5.25zm5.25 3.8125v5.7031h2.9219c1.0195 0 1.8047-0.25 2.3594-0.75 0.5625-0.5 0.84375-1.2031 0.84375-2.1094 0-0.91406-0.28125-1.6172-0.84375-2.1094-0.55469-0.48828-1.3398-0.73438-2.3594-0.73438z"/>
  </symbol>
  <symbol id="h" overflow="visible">
   <path d="m2.3594-15.312h4.8906v15.312h-4.8906zm0-5.9688h4.8906v4h-4.8906z"/>
  </symbol>
  <symbol id="s" overflow="visible">
   <path d="m2.3594-21.281h4.8906v11.594l5.625-5.625h5.6875l-7.4688 7.0312 8.0625 8.2812h-5.9375l-5.9688-6.3906v6.3906h-4.8906z"/>
  </symbol>
  <symbol id="g" overflow="visible">
   <path d="m14.719-14.828v3.9844c-0.65625-0.45703-1.3242-0.79688-2-1.0156-0.66797-0.21875-1.3594-0.32812-2.0781-0.32812-1.3672 0-2.4336 0.40234-3.2031 1.2031-0.76172 0.79297-1.1406 1.9062-1.1406 3.3438 0 1.4297 0.37891 2.543 1.1406 3.3438 0.76953 0.79297 1.8359 1.1875 3.2031 1.1875 0.75781 0 1.4844-0.10938 2.1719-0.32812 0.6875-0.22656 1.3203-0.56641 1.9062-1.0156v4c-0.76172 0.28125-1.5391 0.48828-2.3281 0.625-0.78125 0.14453-1.5742 0.21875-2.375 0.21875-2.7617 0-4.9219-0.70703-6.4844-2.125-1.5547-1.4141-2.3281-3.3828-2.3281-5.9062 0-2.5312 0.77344-4.5039 2.3281-5.9219 1.5625-1.4141 3.7227-2.125 6.4844-2.125 0.80078 0 1.5938 0.074219 2.375 0.21875 0.78125 0.13672 1.5547 0.35156 2.3281 0.64062z"/>
  </symbol>
  <symbol id="f" overflow="visible">
   <path d="m2.1875-5.9688v-9.3438h4.9219v1.5312c0 0.83594-0.007813 1.875-0.015625 3.125-0.011719 1.25-0.015625 2.0859-0.015625 2.5 0 1.2422 0.03125 2.1328 0.09375 2.6719 0.070313 0.54297 0.17969 0.93359 0.32812 1.1719 0.20703 0.32422 0.47266 0.57422 0.79688 0.75 0.32031 0.16797 0.69141 0.25 1.1094 0.25 1.0195 0 1.8203-0.39062 2.4062-1.1719 0.58203-0.78125 0.875-1.8672 0.875-3.2656v-7.5625h4.8906v15.312h-4.8906v-2.2188c-0.74219 0.89844-1.5234 1.5586-2.3438 1.9844-0.82422 0.41406-1.7344 0.625-2.7344 0.625-1.7617 0-3.1055-0.53906-4.0312-1.625-0.92969-1.082-1.3906-2.6602-1.3906-4.7344z"/>
  </symbol>
  <symbol id="r" overflow="visible">
   <path d="m12.422-21.281v3.2188h-2.7031c-0.6875 0-1.1719 0.125-1.4531 0.375-0.27344 0.25-0.40625 0.6875-0.40625 1.3125v1.0625h4.1875v3.5h-4.1875v11.812h-4.8906v-11.812h-2.4375v-3.5h2.4375v-1.0625c0-1.6641 0.46094-2.8984 1.3906-3.7031 0.92578-0.80078 2.3672-1.2031 4.3281-1.2031z"/>
  </symbol>
  <symbol id="e" overflow="visible">
   <path d="m9.6406-12.188c-1.0859 0-1.9141 0.39062-2.4844 1.1719-0.57422 0.78125-0.85938 1.9062-0.85938 3.375s0.28516 2.5938 0.85938 3.375c0.57031 0.77344 1.3984 1.1562 2.4844 1.1562 1.0625 0 1.875-0.38281 2.4375-1.1562 0.57031-0.78125 0.85938-1.9062 0.85938-3.375s-0.28906-2.5938-0.85938-3.375c-0.5625-0.78125-1.375-1.1719-2.4375-1.1719zm0-3.5c2.6328 0 4.6914 0.71484 6.1719 2.1406 1.4766 1.418 2.2188 3.3867 2.2188 5.9062 0 2.5117-0.74219 4.4805-2.2188 5.9062-1.4805 1.418-3.5391 2.125-6.1719 2.125-2.6484 0-4.7148-0.70703-6.2031-2.125-1.4922-1.4258-2.2344-3.3945-2.2344-5.9062 0-2.5195 0.74219-4.4883 2.2344-5.9062 1.4883-1.4258 3.5547-2.1406 6.2031-2.1406z"/>
  </symbol>
  <symbol id="q" overflow="visible">
   <path d="m16.547-12.766c0.61328-0.94531 1.3477-1.6719 2.2031-2.1719 0.85156-0.5 1.7891-0.75 2.8125-0.75 1.7578 0 3.0977 0.54688 4.0156 1.6406 0.92578 1.0859 1.3906 2.6562 1.3906 4.7188v9.3281h-4.9219v-7.9844-0.35938c0.007813-0.13281 0.015625-0.32031 0.015625-0.5625 0-1.082-0.16406-1.8633-0.48438-2.3438-0.3125-0.48828-0.82422-0.73438-1.5312-0.73438-0.92969 0-1.6484 0.38672-2.1562 1.1562-0.51172 0.76172-0.77344 1.8672-0.78125 3.3125v7.5156h-4.9219v-7.9844c0-1.6953-0.14844-2.7852-0.4375-3.2656-0.29297-0.48828-0.8125-0.73438-1.5625-0.73438-0.9375 0-1.6641 0.38672-2.1719 1.1562-0.51172 0.76172-0.76562 1.8594-0.76562 3.2969v7.5312h-4.9219v-15.312h4.9219v2.2344c0.60156-0.86328 1.2891-1.5156 2.0625-1.9531 0.78125-0.4375 1.6406-0.65625 2.5781-0.65625 1.0625 0 2 0.25781 2.8125 0.76562 0.8125 0.51172 1.4258 1.2305 1.8438 2.1562z"/>
  </symbol>
  <symbol id="p" overflow="visible">
   <path d="m17.75-9.3281v9.3281h-4.9219v-7.1094c0-1.3438-0.03125-2.2656-0.09375-2.7656s-0.16797-0.86719-0.3125-1.1094c-0.1875-0.3125-0.44922-0.55469-0.78125-0.73438-0.32422-0.17578-0.69531-0.26562-1.1094-0.26562-1.0234 0-1.8242 0.39844-2.4062 1.1875-0.58594 0.78125-0.875 1.8711-0.875 3.2656v7.5312h-4.8906v-21.281h4.8906v8.2031c0.73828-0.88281 1.5195-1.5391 2.3438-1.9688 0.83203-0.42578 1.75-0.64062 2.75-0.64062 1.7695 0 3.1133 0.54688 4.0312 1.6406 0.91406 1.0859 1.375 2.6562 1.375 4.7188z"/>
  </symbol>
  <symbol id="o" overflow="visible">
   <path d="m2.5781-20.406h5.875l7.4219 14v-14h4.9844v20.406h-5.875l-7.4219-14v14h-4.9844z"/>
  </symbol>
  <symbol id="n" overflow="visible">
   <path d="m17.75-9.3281v9.3281h-4.9219v-7.1406c0-1.3203-0.03125-2.2344-0.09375-2.7344s-0.16797-0.86719-0.3125-1.1094c-0.1875-0.3125-0.44922-0.55469-0.78125-0.73438-0.32422-0.17578-0.69531-0.26562-1.1094-0.26562-1.0234 0-1.8242 0.39844-2.4062 1.1875-0.58594 0.78125-0.875 1.8711-0.875 3.2656v7.5312h-4.8906v-15.312h4.8906v2.2344c0.73828-0.88281 1.5195-1.5391 2.3438-1.9688 0.83203-0.42578 1.75-0.64062 2.75-0.64062 1.7695 0 3.1133 0.54688 4.0312 1.6406 0.91406 1.0859 1.375 2.6562 1.375 4.7188z"/>
  </symbol>
  <symbol id="m" overflow="visible">
   <path d="m2.3594-15.312h4.8906v15.031c0 2.0508-0.49609 3.6172-1.4844 4.7031-0.98047 1.082-2.4062 1.625-4.2812 1.625h-2.4219v-3.2188h0.85938c0.92578 0 1.5625-0.21094 1.9062-0.625 0.35156-0.41797 0.53125-1.2461 0.53125-2.4844zm0-5.9688h4.8906v4h-4.8906z"/>
  </symbol>
 </defs>
 <g>
  <path d="m125.14 285.2c2.3359-4.6523 7.9844-6.5352 12.629-4.2109l18.82 9.4141c4.6484 2.3242 6.5352 7.9727 4.2109 12.629-1.6523 3.3047-4.9727 5.2031-8.4297 5.2031-1.418 0-2.8516-0.3125-4.1992-0.99219l-18.82-9.4062c-4.6484-2.332-6.5352-7.9883-4.2109-12.637zm450.25 30.934c-0.089843 0.67578-23.855 71.242-106.83 85.137-4.8438 1.3594-9.7539 2.0703-14.695 2.0703-0.91797 0-1.8359-0.050781-2.7539-0.10156-3.8086 0.24219-7.6836 0.40234-11.711 0.41016-85.484-0.26172-150.85-54.746-174.69-77.719-5.8984 2.3594-10.613 4.1758-14.066 5.3984-39.195 26.344-78.031 30.918-100.14 30.918-10.898 0-17.73-1.1016-18.535-1.2422-5.1289-0.875-8.5742-5.7383-7.6953-10.859 0.875-5.1133 5.6523-8.5352 10.836-7.6953 0.41406 0.074219 33.281 5.1875 72.762-9.957-17.191-3.707-30.598-10.438-31.562-10.93-4.625-2.3633-6.4453-8.0234-4.082-12.652 2.3477-4.6328 8.0039-6.4805 12.652-4.1094 0.33984 0.16797 34.473 17.344 58.547 9.1094 4.0547-1.3828 11.039-4.1367 19.902-7.7188 0.027344-0.011718 0.050781-0.035156 0.078125-0.042968 0.72266-0.28516 1.5-0.59375 2.25-0.89453 3.4844-1.4102 7.2188-2.9297 11.184-4.543 26.477-10.77 60.93-24.77 95.09-36.965 0.26953-0.10156 0.54297-0.19531 0.8125-0.29297 1.9023-0.68359 3.8125-1.3555 5.7188-2.0234 0.73828-0.25781 1.4688-0.50781 2.1992-0.76562 1.5391-0.53906 3.0859-1.0703 4.6211-1.5977 0.85547-0.29687 1.7148-0.58203 2.5703-0.875 1.4844-0.50391 2.9688-1.0078 4.4453-1.5 0.71094-0.23437 1.418-0.46875 2.1289-0.69922 1.6797-0.55469 3.3555-1.1094 5.0234-1.6523 0.32031-0.10547 0.63672-0.20312 0.95703-0.30859 4.6602-1.5078 9.2344-2.918 13.766-4.2891 0.63672-0.19141 1.2695-0.375 1.9023-0.56641 6.2656-1.8633 12.375-3.5859 18.289-5.1133 2.5547-0.66797 5.0625-1.3047 7.4648-1.8828 0.18359-0.042969 0.375-0.089844 0.55859-0.13281 1.2695-0.30078 2.5156-0.58984 3.7461-0.86328 0.96484-0.21094 1.9219-0.42578 2.8633-0.62891 0.68359-0.14453 1.3789-0.29688 2.0508-0.44141 1.8203-0.375 3.6172-0.73438 5.3828-1.0586 0.015625 0 0.035156 0 0.042968-0.003906 1.7969-0.33203 3.5508-0.63281 5.2734-0.90625 0.17969-0.027344 0.35938-0.054688 0.53906-0.085938 3.5547-0.55469 6.9102-0.98438 10.051-1.2695 0.11328-0.011719 0.22266-0.015625 0.33203-0.027344 1.3711-0.11719 2.6992-0.21094 4.0039-0.28516 0.32422-0.015625 0.65625-0.039063 0.98047-0.050781 1.3984-0.0625 2.7734-0.10547 4.0898-0.10547 1.2539 0 2.5039 0.039062 3.7578 0.11328 0.55469 0.035156 1.125 0.09375 1.6875 0.14062 0.20312 0.015625 0.41016 0.035156 0.60938 0.050781 0.074219 0.011719 0.14453 0.011719 0.21094 0.015625 0.42188 0.039063 0.83984 0.0625 1.2617 0.11328 0.67578 0.074219 1.3672 0.18359 2.0508 0.28125 0.58203 0.078126 1.1641 0.14453 1.7461 0.24609 0.32031 0.050782 0.63672 0.11719 0.95703 0.17188 0.17188 0.035157 0.35156 0.066407 0.52734 0.10156 0.21094 0.039062 0.42969 0.085937 0.64844 0.12891 0.57031 0.11328 1.1367 0.20703 1.7031 0.32422 0.65625 0.14062 1.3086 0.3125 1.9648 0.46875 0.46875 0.11328 0.93359 0.21094 1.3984 0.33203 0.12891 0.035156 0.25781 0.054688 0.37891 0.089844 0.027343 0.003906 0.050781 0.015625 0.078124 0.023437 0.95703 0.25391 1.8945 0.56641 2.832 0.85547 0.89062 0.26953 1.7734 0.50391 2.6641 0.80469 0.46094 0.15234 0.91406 0.29687 1.3789 0.46094 0.19141 0.066406 0.38672 0.12891 0.58203 0.19531 0.77344 0.27344 1.5391 0.57031 2.3086 0.86328 0.49219 0.18359 0.98437 0.37109 1.4844 0.56641 0.21094 0.085937 0.42188 0.15625 0.63281 0.24219 0.074219 0.027344 0.14062 0.078126 0.21094 0.11328 0.085938 0.035156 0.16406 0.066406 0.24609 0.10156 0.33984 0.14062 0.67578 0.27344 1.0117 0.42188 7.2812 3.0742 14.094 6.8477 20.242 10.758h0.015626l0.089843 0.074218c16.844 10.73 28.441 22.43 29.328 23.328 3.0781 3.1641 3.4648 7.9297 1.2305 11.523 6.3125 10.242 9.3906 18.25 10.281 20.793l0.10156 0.18359c0.58594 1.9727 0.68359 4.043 0.027343 5.9258zm-72.961-56.926c-0.011719-0.015626-0.015625-0.039063-0.023438-0.054688-0.58203-0.21094-1.1523-0.35938-1.7305-0.55859-0.67188-0.22266-1.3438-0.44141-2.0117-0.64844-0.97266-0.29688-1.9492-0.58203-2.9062-0.82812-1.0742-0.28516-2.1445-0.54297-3.1992-0.76172-0.18359-0.039063-0.36328-0.074219-0.54297-0.11328-0.26172-0.050782-0.51953-0.11328-0.78516-0.15625-1.4102-0.26172-2.8047-0.46875-4.1719-0.61719-0.039062-0.003906-0.078125-0.015625-0.11719-0.015625-0.23047-0.023437-0.46484-0.042969-0.69531-0.066406-0.023438 0-0.039062 0-0.0625-0.003906-1.4688-0.13281-2.9219-0.22266-4.3359-0.22266-0.035156 0-0.0625-0.003906-0.09375-0.003906-0.050781 0-0.11328 0.003906-0.16797 0.003906-1.0703 0-2.1953 0.039063-3.3438 0.09375-0.91406 0.039063-1.8867 0.11719-2.8438 0.19141-0.34766 0.027343-0.68359 0.050781-1.0312 0.078125-1.293 0.11328-2.6328 0.25391-4.0039 0.42188-0.11719 0.011719-0.23047 0.023437-0.35156 0.039062-1.4336 0.17188-2.9336 0.39844-4.4336 0.62891-5.5039 0.85156-11.652 2.082-18.426 3.6836-1.1992 0.28516-2.4141 0.58203-3.6328 0.88672-1.8984 0.46875-3.8359 0.96875-5.8281 1.4883-2.7539 0.72656-5.5234 1.4688-8.3789 2.2852-0.33984 0.09375-0.6875 0.19531-1.0312 0.29297-1.2031 0.33984-2.418 0.69531-3.6523 1.0586-1.9727 0.57812-3.9688 1.1719-6.0156 1.793 0 0 0 0.003906-0.003907 0.011719-4.957 9.9336-8.3047 20.828-9.9414 32.441-5.918 41.961 12.098 79.465 40.141 83.613 0.81641 0.11719 1.6445 0.16406 2.4688 0.22266 4.3047 0.32031 8.668-0.16797 13.004-1.4844 4.8594-1.4727 9.6836-3.9414 14.312-7.4102 16.27-12.164 28.102-34.52 31.668-59.801 2.8633-20.301 0.007813-40.66-7.832-56.488zm-91.305 123.44c-17.062-19.652-25.828-51.121-21.09-84.738 1.0859-7.6875 2.8164-15.125 5.1758-22.254-15.141 5.125-30.598 10.758-45.383 16.363-1.4961 0.56641-2.9961 1.1367-4.4844 1.707-0.066406 0.027343-0.14062 0.050781-0.20703 0.078125-20.531 7.8672-39.957 15.719-55.957 22.223-1.8477 0.75-3.6406 1.4844-5.332 2.1719 19.668 17.785 67.082 55.094 127.28 64.449zm145.25-69.434c-0.18359-0.28125-0.28516-0.65625-0.46875-0.94141-1.043-2.4414-2.9219-6.3945-5.7461-11.098-4.3516-7.5156-11.844-18.195-23.027-28.262 3.3281 14.211 3.9883 29.688 1.7695 45.406-2.3984 17.039-8.1133 33.078-16.273 46.531 25.309-16.402 38.152-38.902 43.746-51.637zm-294.22-57.074c-4.8945 1.7422-7.4531 7.125-5.7188 12.02 1.3711 3.8633 5 6.2734 8.8711 6.2734 1.0469 0 2.1055-0.18359 3.1523-0.54688l48.707-17.305c30.805-12.27 124.55-49.605 164.59-49.605 33.168 0 68.207 35.359 68.562 35.719 3.6406 3.7109 9.5938 3.7852 13.312 0.14062 3.7109-3.6289 3.7734-9.582 0.15625-13.301-1.6523-1.6914-40.887-41.379-82.023-41.379-39.109 0-116.64 29.07-171.22 50.809zm218.57 11.082c11.195 12.699 12.188 36.629 10.926 45.59-4.3867 31.09-23.105 51.973-37.844 51.973-0.33203-0.003906-1.6406-0.066406-2.2891-0.15625-15.238-2.25-28.785-28.902-24.227-61.219 0.25391-1.7578 1.25-6.793 3.3086-13.07 1.5352-4.7227 6.5078-7.4297 11.277-6.1875 0.90625 0.23047 1.6367 0.34766 2.2344 0.34766 5.1914 0 9.4062-4.4258 9.4062-9.8633 0-1.0938-0.22266-2.2305-0.66016-3.4609-1.0352-2.8633-0.62891-6.0469 1.1133-8.5508 1.7305-2.5039 4.5703-4.0156 7.6094-4.0547 7.5312 0.125 14.07 2.8945 19.145 8.6523zm-10.652 18.68c-4.0156 9.5195-12.965 16.402-23.566 17.32-0.33203 1.3945-0.51953 2.3906-0.57812 2.793-3.2539 23.102 5.1055 37.039 8.4219 39.789 3.9023-1.5391 15.539-13.441 18.664-35.629 0.65625-4.5938 0.11328-16.066-2.9414-24.273zm-242.41 7.7852c5.2031 0 9.4062-4.2109 9.4062-9.4062 0-5.1953-4.207-9.4141-9.4062-9.4141-33.164 0-68.207-35.359-68.555-35.711-3.6406-3.7031-9.5938-3.7812-13.312-0.14062-3.7109 3.6328-3.7734 9.582-0.15234 13.293 1.6523 1.6914 40.887 41.379 82.02 41.379zm180.87-136.88c0.28516 0.09375 0.57031 0.09375 0.84375 0.09375 4.6602 0 8.4219-3.4141 9.1914-7.957 0.039063-0.23438 0.10547-0.46094 0.12891-0.69922 0.18359-2.4453-0.55859-4.8906-2.168-6.8711-1.5977-1.8867-3.9531-3.1016-6.3945-3.293-5.1758-0.375-9.7812 3.3867-10.164 8.5625-0.023437 0.24609 0.003906 0.48047 0 0.72266-0.0625 2.2734 0.72266 4.4453 2.1719 6.1484 1.5977 1.8828 3.8594 3.1016 6.3008 3.2891l0.089844-0.003906zm-180.87 27.574c0.46875 0 0.93359 0 1.5078-0.10156l144.36-23.43c5.0781-0.84375 8.5586-5.6406 7.8125-10.809v-0.011719c-0.84375-5.0781-5.5508-8.5664-10.824-7.8125l-70.004 11.387 89.582-38.863c11.098-4.5195 23.43-5.3711 34.82-2.4453l124.12 22.586 5.5625 28.422-106.53-18.727c-5.1758-0.84375-10.074 2.6328-10.922 7.6211-0.003906 0.011719 0 0.015625-0.003906 0.023437-0.92578 5.0742 2.5586 9.957 7.6211 10.891l120.09 21.172c3 0.47656 6.1094-0.46875 8.2773-2.7227 2.1602-2.168 3.1094-5.3711 2.5352-8.3789l-9.4141-48.184c-0.75-3.8594-3.7578-6.7695-7.5273-7.4375l-129.4-23.527c-15.16-3.8594-31.625-2.7266-46.301 3.293l-159.13 68.988c-4.3281 1.875-6.5898 6.7695-5.2656 11.289 1.125 4.0508 4.8828 6.7773 9.0273 6.7773zm313.65 208.55c-0.53125 0.48828-54.691 48.758-126.31 55.422-97.453 9.1094-179.79-73.453-180.62-74.285-3.5625-3.6445-9.3789-3.7734-13.125-0.32422-18.598 17.227-41.199 25.867-69.07 26.402-5.1914 0.10156-9.3242 4.3945-9.2305 9.5938 0.10156 5.1367 4.2969 9.2305 9.4141 9.2305h0.17969c29.012-0.56641 54.113-9.1719 74.766-25.621 20.684 18.938 88.512 74.551 172.18 74.551 5.6797 0 11.434-0.25781 17.246-0.80078 77.785-7.2422 134.8-58.043 137.19-60.199 3.8516-3.4844 4.1562-9.4375 0.67188-13.289-3.4727-3.8633-9.4453-4.1602-13.289-0.67969zm-329.02 28.613c-42.195 34.559-74.918 27.422-76.461 27.047-5.0078-1.2266-10.109 1.793-11.387 6.8047-1.2891 5.0352 1.7461 10.164 6.7812 11.445 0.57812 0.14453 5.5664 1.3555 13.844 1.3555 16.43 0 45.785-4.7656 79.156-32.098 4.0156-3.2891 4.6133-9.2227 1.3164-13.242-3.3008-4.0195-9.2461-4.6172-13.25-1.3125z"/>
 </g>
</svg>
